<svg width="1440" height="906" viewBox="0 0 1440 906" fill="none" xmlns="http://www.w3.org/2000/svg">
<mask id="mask0" mask-type="alpha" maskUnits="userSpaceOnUse" x="0" y="0" width="1440" height="906">
<rect width="1440" height="906" fill="url(#paint0_linear)"/>
</mask>
<g mask="url(#mask0)">
<rect width="1440" height="906" fill="url(#paint1_linear)"/>
<path fill-rule="evenodd" clip-rule="evenodd" d="M28.4566 1387.33L-46.4214 1259.06C-46.4465 1259.02 -46.4493 1259.01 -46.4748 1258.97C-47.2839 1257.62 -78.5679 1204.63 -43.7832 1136.01C-8.54618 1066.49 71.2656 1066.49 71.2656 1066.49L1239.82 1066.49C1349.97 1066.49 1392.32 1046.44 1451.18 946.173C1510.05 845.91 1534.76 923.076 1557.5 881.5C1580.1 840.18 1648.78 347.281 1617.66 268.908C1617.25 267.873 1617.07 266.901 1617.07 265.787C1617.31 165.482 1638.35 120 1617.07 120L274.608 120C244.374 120.128 214.723 128.325 188.722 143.743C138.313 173.973 113.438 222.823 111.519 226.702C111.429 226.885 111.477 226.813 111.375 226.99C108.072 232.707 -228.763 815.791 -303.311 943.5C-329.211 987.83 -342.053 1008.87 -346.12 1050.45C-349.715 1085.7 -342.24 1121.2 -324.733 1152.02C-324.721 1152.04 -324.727 1152.03 -324.715 1152.05C-324.326 1152.72 -211.374 1347.38 -161.508 1435.46C-111.555 1523.69 -39.6629 1515.03 -17.0278 1507.65C14.196 1497.49 59.8944 1444.82 28.4566 1387.33Z" fill="url(#paint2_linear)" fill-opacity="0.05"/>
<path fill-rule="evenodd" clip-rule="evenodd" d="M-496.514 706.073L-543.862 625.016C-543.887 624.973 -543.9 624.952 -543.925 624.91C-544.719 623.574 -564.043 590.258 -542.208 547.21C-519.919 503.27 -469.437 503.269 -469.437 503.269L143.194 503.269C212.868 503.269 239.658 490.594 276.89 427.218C314.121 363.842 462.202 107.043 476.587 80.7628C490.972 54.4829 500.567 17.4713 479.972 -29.089C454.722 -86.2119 395.354 -95 381.815 -95L-340.818 -95C-359.941 -94.9192 -378.696 -89.7381 -395.142 -79.9926C-426.65 -61.1109 -442.386 -30.7365 -443.926 -27.6536C-444.017 -27.4707 -443.988 -27.509 -444.09 -27.3321C-447.377 -21.6451 -659.347 345.037 -706.366 425.528C-722.747 453.549 -730.871 466.849 -733.443 493.129C-735.716 515.409 -730.991 537.843 -719.922 557.319C-719.91 557.34 -719.915 557.332 -719.903 557.353C-719.515 558.021 -648.181 680.874 -616.671 736.493C-585.075 792.264 -539.601 786.788 -525.284 782.124C-505.534 775.702 -476.629 742.408 -496.514 706.073Z" fill="#4543A3" fill-opacity="0.02"/>
<path fill-rule="evenodd" clip-rule="evenodd" d="M1086 1088.83L1060.1 1044.46C1060.07 1044.42 1060.05 1044.38 1060.02 1044.33C1059.33 1043.16 1049.19 1025.08 1060.98 1001.81C1073.18 977.736 1100.82 977.736 1100.82 977.736L1436.16 977.736C1474.3 977.736 1488.96 970.792 1509.34 936.074C1529.72 901.357 1610.78 760.68 1618.66 746.284C1626.53 731.888 1631.78 711.612 1620.51 686.106C1606.69 654.814 1574.19 650 1566.78 650L1171.22 650C1160.75 650.044 1150.49 652.883 1141.49 658.221C1124.6 668.349 1115.99 684.511 1114.84 686.768C1114.75 686.95 1114.75 686.977 1114.64 687.154C1111.4 692.77 996.697 891.339 971.127 935.149C962.159 950.498 957.713 957.784 956.305 972.181C955.061 984.38 957.645 996.664 963.698 1007.33C963.71 1007.35 963.707 1007.35 963.719 1007.37C964.105 1008.03 1003.01 1075.1 1020.22 1105.5C1037.52 1136.05 1062.41 1133.05 1070.25 1130.49C1081.06 1126.98 1096.88 1108.74 1086 1088.83Z" fill="url(#paint3_linear)" fill-opacity="0.05"/>
<path fill-rule="evenodd" clip-rule="evenodd" d="M939.181 1033.07L921.823 1003.36C921.798 1003.31 921.776 1003.28 921.751 1003.24C921.213 1002.31 914.547 990.249 922.407 974.754C930.588 958.624 949.121 958.624 949.121 958.624L1174.02 958.624C1199.59 958.624 1209.43 953.971 1223.1 930.705C1236.76 907.44 1291.12 813.17 1296.4 803.522C1301.68 793.875 1305.21 780.288 1297.65 763.196C1288.38 742.226 1266.58 739 1261.61 739L996.336 739C989.316 739.03 982.431 740.932 976.394 744.509C965.276 751.172 959.508 761.732 958.575 763.547C958.481 763.728 958.437 763.82 958.335 763.997C955.131 769.54 879.172 900.935 862.144 930.085C856.131 940.371 853.149 945.254 852.204 954.901C851.371 963.073 853.101 971.3 857.157 978.446C857.169 978.466 857.167 978.463 857.179 978.484C857.563 979.147 883.558 1023.92 895.071 1044.24C906.67 1064.71 923.363 1062.7 928.619 1060.99C935.869 1058.63 946.48 1046.41 939.181 1033.07Z" fill="#15144B" fill-opacity="0.15"/>
<g filter="url(#filter0_f)">
<rect x="136" y="270" width="329" height="127" fill="#34A9FF" fill-opacity="0.15"/>
</g>
<g filter="url(#filter1_f)">
<rect x="648" y="129" width="352" height="105" fill="#9B38D5" fill-opacity="0.15"/>
</g>
<g filter="url(#filter2_f)">
<rect x="1011" y="417" width="352" height="105" fill="#633CD2" fill-opacity="0.15"/>
</g>
</g>
<defs>
<filter id="filter0_f" x="-24" y="110" width="649" height="447" filterUnits="userSpaceOnUse" color-interpolation-filters="sRGB">
<feFlood flood-opacity="0" result="BackgroundImageFix"/>
<feBlend mode="normal" in="SourceGraphic" in2="BackgroundImageFix" result="shape"/>
<feGaussianBlur stdDeviation="80" result="effect1_foregroundBlur"/>
</filter>
<filter id="filter1_f" x="488" y="-31" width="672" height="425" filterUnits="userSpaceOnUse" color-interpolation-filters="sRGB">
<feFlood flood-opacity="0" result="BackgroundImageFix"/>
<feBlend mode="normal" in="SourceGraphic" in2="BackgroundImageFix" result="shape"/>
<feGaussianBlur stdDeviation="80" result="effect1_foregroundBlur"/>
</filter>
<filter id="filter2_f" x="851" y="257" width="672" height="425" filterUnits="userSpaceOnUse" color-interpolation-filters="sRGB">
<feFlood flood-opacity="0" result="BackgroundImageFix"/>
<feBlend mode="normal" in="SourceGraphic" in2="BackgroundImageFix" result="shape"/>
<feGaussianBlur stdDeviation="80" result="effect1_foregroundBlur"/>
</filter>
<linearGradient id="paint0_linear" x1="720" y1="0" x2="720" y2="906" gradientUnits="userSpaceOnUse">
<stop stop-color="#160A31"/>
<stop offset="1" stop-color="#251F5F"/>
</linearGradient>
<linearGradient id="paint1_linear" x1="720" y1="0" x2="720" y2="906" gradientUnits="userSpaceOnUse">
<stop stop-color="#160A31"/>
<stop offset="1" stop-color="#251F5F"/>
</linearGradient>
<linearGradient id="paint2_linear" x1="935.997" y1="182.5" x2="893.281" y2="947.327" gradientUnits="userSpaceOnUse">
<stop stop-color="#6B4EDD" stop-opacity="0.6"/>
<stop offset="1" stop-color="#00CDF5" stop-opacity="0"/>
</linearGradient>
<linearGradient id="paint3_linear" x1="1213.22" y1="801.433" x2="1215.53" y2="1207.16" gradientUnits="userSpaceOnUse">
<stop stop-color="#6B4EDD"/>
<stop offset="1" stop-color="#00CDF5"/>
</linearGradient>
</defs>
</svg>
